<?xml version="1.0" standalone="no"?>
<!DOCTYPE svg PUBLIC "-//W3C//DTD SVG 1.1//EN" "http://www.w3.org/Graphics/SVG/1.1/DTD/svg11.dtd" >
<svg xmlns="http://www.w3.org/2000/svg" xmlns:xlink="http://www.w3.org/1999/xlink" version="1.1">
<metadata></metadata>
<defs>
<font id="balkenobalkeno" horiz-adv-x="1112" >
<font-face units-per-em="2048" ascent="1536" descent="-512" />
<missing-glyph horiz-adv-x="491" />
<glyph horiz-adv-x="0" />
<glyph unicode="&#xd;" horiz-adv-x="448" />
<glyph unicode=" "  horiz-adv-x="491" />
<glyph unicode="&#x09;" horiz-adv-x="491" />
<glyph unicode="&#xa0;" horiz-adv-x="491" />
<glyph unicode="!" horiz-adv-x="450" d="M61 164q0 68 48.5 116t115.5 48q68 0 116 -48.5t48 -115.5q0 -68 -48 -116t-116 -48t-116 48t-48 116zM100 485v945q53 29 113.5 45t134.5 16v-942q-53 -29 -112.5 -46.5t-135.5 -17.5z" />
<glyph unicode="&#x22;" horiz-adv-x="645" d="M61 963l70 485q47 29 102.5 41t118.5 0l-139 -516q-59 -23 -123 -17zM295 969l139 516q59 20 123 14l27 -6l-68 -485q-49 -27 -103.5 -40.5t-117.5 1.5z" />
<glyph unicode="&#x26;" horiz-adv-x="1370" d="M61 520q0 133 60.5 243.5t161.5 182.5q-68 49 -105 121t-37 154q0 53 20.5 115.5t70 114.5t132 87t209.5 35q123 0 209 -35t139.5 -87t78 -114.5t24.5 -115.5q0 -82 -37 -154t-104 -121q-47 -35 -109.5 -55.5t-136.5 -20.5h-66q-55 -4 -102 -32.5t-82 -75.5t-55.5 -109.5 t-20.5 -132.5q0 -72 21.5 -135t58.5 -110.5t86 -75t107 -27.5q57 0 107 27.5t86 75t56.5 111t20.5 134.5h-158v172h437q47 0 91 -8t85 -22l-70 -158q-29 10 -56.5 14t-49.5 2h-29q0 -109 -41 -203t-111.5 -164.5t-166 -111.5t-201.5 -41q-109 0 -204 41t-166 111.5t-112 165 t-41 202.5zM379 1225q-2 -37 13.5 -70t43 -57.5t65.5 -40t83 -15.5t83 15.5t64.5 40t41.5 57.5t13 70q-2 33 -14 65.5t-36.5 57t-62.5 40t-89 15.5t-88 -15.5t-62.5 -40t-39 -57t-15.5 -65.5z" />
<glyph unicode="'" horiz-adv-x="413" d="M61 963l68 485q49 29 103.5 41t119.5 0l-139 -516q-29 -10 -59.5 -15.5t-65.5 -1.5z" />
<glyph unicode="(" horiz-adv-x="643" d="M61 -43v1010q0 109 41 203t112 164.5t165 111.5t203 41v-170q-55 0 -105.5 -26.5t-87.5 -74t-58.5 -110t-21.5 -133.5v-1020q0 -72 21.5 -135.5t58.5 -110.5t87 -73.5t106 -26.5v-170q-109 0 -203 41t-165 111.5t-112 164.5t-41 203z" />
<glyph unicode=")" horiz-adv-x="643" d="M61 -393q55 0 104.5 26.5t86.5 73.5t59.5 110.5t22.5 135.5v1020q0 72 -22.5 134t-59.5 109.5t-86 74t-105 26.5v170q109 0 203 -41t165 -111.5t112 -165t41 -202.5v-1010q0 -109 -41 -203t-112 -164.5t-165 -111.5t-203 -41v170z" />
<glyph unicode="," horiz-adv-x="653" d="M61 -301q98 27 159 85t90.5 141t32.5 187.5t-11 225.5q53 29 113.5 53.5t136.5 24.5q16 -186 1.5 -328.5t-72.5 -245t-168 -171t-282 -107.5v135z" />
<glyph unicode="-" horiz-adv-x="714" d="M61 455v190h592v-190h-592z" />
<glyph unicode="." horiz-adv-x="450" d="M61 164q0 68 48.5 115t115.5 47q68 0 116 -47.5t48 -114.5q0 -70 -48 -117t-116 -47t-116 47t-48 117z" />
<glyph unicode="0" d="M61 489v508q0 106 37 201.5t102.5 166.5t155.5 112t199 41t200 -41t156.5 -112t102.5 -166t37 -202v-508q0 -109 -37 -202.5t-102.5 -164.5t-156.5 -112t-200 -41t-199 41t-155.5 112t-102.5 165t-37 202zM309 483q0 -72 18.5 -134t50.5 -109t77 -74t100 -27t100 27 t78 74t50.5 109.5t17.5 133.5v518v3q0 72 -17.5 134t-50.5 109t-78 74t-100 27t-100 -27t-77 -74t-50.5 -109.5t-18.5 -133.5v-3v-518z" />
<glyph unicode="1" horiz-adv-x="804" d="M61 1034q158 68 245 145.5t134 149.5v-313q-49 -37 -101 -59.5t-97 -34.5q-53 -14 -103 -21q-23 23 -37 46.5t-24 43.5q-11 23 -17 43zM496 0v1427q53 29 113.5 45.5t133.5 16.5v-1426q-51 -29 -111.5 -46t-135.5 -17z" />
<glyph unicode="2" horiz-adv-x="1046" d="M63 0v381q0 98 26 176t68 138.5t97 105.5t117 78q61 33 75.5 41t17.5 9t12 6t59 32q100 53 145 103t41 122q-2 33 -15.5 66.5t-38 59t-62.5 40t-87 12.5q-47 -4 -106.5 -23.5t-122.5 -89.5l-2 3q-33 37 -54.5 74.5t-37.5 76.5q63 57 142 91t171 38q125 6 213 -27.5 t144.5 -88t83 -118t32.5 -116.5q12 -123 -32 -210t-146 -149q-45 -27 -78 -44t-68.5 -33.5t-77.5 -38t-106 -56.5q-82 -47 -123 -124.5t-39 -147.5v-221v-166h-248zM367 0v166h579v-166h-579z" />
<glyph unicode="3" horiz-adv-x="966" d="M61 1411q63 57 142.5 91t171.5 38q125 6 211 -27.5t139 -87t76.5 -118t23.5 -117.5q0 -82 -36.5 -155t-104.5 -122q-47 -35 -109.5 -54t-136.5 -19h-55h-164v123q29 23 68 35t96 12q45 0 83 15t65.5 41t42 58.5t12.5 67.5q-2 33 -14.5 66.5t-38 59t-62.5 40t-88 12.5 q-47 -4 -105.5 -23.5t-123.5 -89.5v3q-33 37 -54.5 74.5t-38.5 76.5zM63 80q14 41 34 80t50 78l3 2q66 -66 126 -84.5t107 -16.5q57 2 106.5 30t86 75t58 109.5t21.5 135.5q0 98 -37.5 176t-97.5 126q59 10 109.5 35.5t87.5 62.5q86 -72 137 -175.5t51 -224.5 q0 -109 -41 -202.5t-111.5 -164.5t-165.5 -112t-204 -41q-92 0 -173 29t-147 82z" />
<glyph unicode="4" horiz-adv-x="1079" d="M61 1028v397q53 29 112.5 46.5t135.5 17.5v-467q0 -72 21.5 -134.5t58.5 -109.5t87 -73.5t106 -26.5h131v-170h-131q-109 0 -203 41t-165 111.5t-112 165t-41 202.5zM768 0v1425q53 29 113.5 46.5t136.5 17.5v-1430q-43 -23 -92 -39t-109 -20h-49z" />
<glyph unicode="5" horiz-adv-x="1069" d="M61 80q27 84 82 158l2 2q80 -63 153 -86t140 -19q35 2 90.5 19.5t106.5 58.5t88 108.5t37 167.5q0 72 -21.5 135.5t-58.5 111.5t-87 76t-106 28q-66 0 -122 -39v194q29 6 59.5 10.5t62.5 4.5q106 0 201.5 -41t166.5 -112t112 -166.5t41 -201.5q0 -139 -53.5 -237 t-137.5 -160.5t-185.5 -92.5t-197.5 -30q-92 0 -160.5 16.5t-115.5 39.5q-55 23 -97 55zM61 801v688h818v-166h-570v-522h-248z" />
<glyph unicode="6" d="M61 489v527q0 106 41 201.5t112 166t165 111.5t203 41q92 0 173 -29.5t148 -81.5q-29 -84 -84 -157l-2 -2q-68 66 -128 83t-107 15q-55 0 -105.5 -26.5t-87.5 -73.5t-58.5 -109.5t-21.5 -134.5v-537q0 -72 18.5 -134t50.5 -109t77 -74t100 -27q57 0 102 28t77 75 t49.5 110.5t17.5 136.5q0 72 -17.5 135.5t-49.5 111.5t-77 76t-102 28q-66 0 -109 -38t-79 -102v263q49 23 90 35t98 12q109 0 200 -41t156.5 -112t102.5 -166t37 -202q0 -109 -37 -202.5t-102.5 -164.5t-156.5 -112t-200 -41t-199 41t-155.5 112t-102.5 165t-37 202z" />
<glyph unicode="7" horiz-adv-x="968" d="M61 1325v166h846v-166h-846zM164 0l498 1270h245l-467 -1207q-57 -29 -124.5 -46t-151.5 -17z" />
<glyph unicode="8" horiz-adv-x="1163" d="M61 489q0 133 59.5 243t160.5 181q-68 49 -105 122t-37 155q0 53 20.5 114.5t70 113.5t132 87t209.5 35q123 0 209 -35t139.5 -87t78 -113.5t24.5 -114.5q0 -82 -37 -154.5t-104 -122.5q-47 -35 -108.5 -54t-137.5 -19h-53h-13v-2q-53 -4 -101 -33t-83 -75t-55.5 -108.5 t-20.5 -132.5q0 -74 21.5 -137t58.5 -110t86 -75t107 -28q57 0 107 28t87 75t57.5 110.5t20.5 136.5q0 98 -39 176t-98 126q59 10 109 35.5t87 62.5q86 -72 137.5 -175.5t51.5 -224.5q0 -109 -41 -202.5t-111.5 -164.5t-166 -112t-201.5 -41q-109 0 -203 41t-165 112 t-112 165t-41 202zM379 1192q-2 -35 12.5 -67.5t42 -58.5t65.5 -41t83 -15t82.5 15t65.5 41t42 58.5t12 67.5q-2 33 -14 65.5t-36.5 57t-62.5 40t-89 15.5q-102 0 -150.5 -55t-52.5 -123z" />
<glyph unicode="9" d="M61 1014q0 109 37 204t102.5 165.5t155.5 111.5t199 41t200 -41t156.5 -111.5t102.5 -166t37 -203.5v-525q0 -109 -41 -202.5t-112 -164.5t-166 -112t-204 -41q-92 0 -173 29t-146 82q14 41 33.5 80t50.5 78h2q66 -66 126 -83.5t107 -15.5q55 0 104.5 27t86.5 74 t59.5 109.5t22.5 133.5v537q0 72 -17.5 134.5t-50.5 109.5t-78 73.5t-100 26.5t-101 -27.5t-78 -75t-49.5 -111t-17.5 -136.5q0 -72 17.5 -135.5t49.5 -110.5t78 -74.5t101 -27.5q66 0 110 37.5t80 101.5v-264q-49 -23 -90 -35t-100 -12q-109 0 -199 40.5t-155.5 111.5 t-102.5 165t-37 203z" />
<glyph unicode=":" horiz-adv-x="450" d="M61 164q0 68 48.5 115t115.5 47q68 0 116 -47.5t48 -114.5q0 -70 -48 -117t-116 -47t-116 47t-48 117zM61 844q0 70 48.5 117t115.5 47q68 0 116 -47.5t48 -116.5q0 -68 -48 -115t-116 -47t-116 47t-48 115z" />
<glyph unicode=";" horiz-adv-x="1705" d="M-2161 -301q98 27 158.5 85t90.5 141t33 187.5t-11 225.5q53 29 113.5 53.5t134.5 24.5q18 -186 3.5 -328.5t-72.5 -245t-168 -171t-282 -107.5v135zM-1923 844q0 70 47 117t117 47q68 0 116 -47.5t48 -116.5q0 -68 -48 -115t-116 -47q-70 0 -117 47t-47 115z" />
<glyph unicode="?" horiz-adv-x="970" d="M61 1260q47 70 116 122t157 80q119 39 212 28t160.5 -49t111 -93.5t61.5 -106.5q43 -115 22.5 -210t-104.5 -181q-47 -47 -80 -79t-74 -73q-47 -45 -113.5 -86t-113.5 -63q-51 -23 -112.5 -43.5t-135.5 -20.5q18 92 74.5 166t124.5 137q33 31 49 45.5t22 19.5t6 6t4.5 4 t15.5 13.5t40 36.5q84 78 114.5 138.5t8.5 128.5q-10 33 -32 61.5t-52.5 47t-70.5 22.5t-87 -11q-47 -16 -98 -49.5t-94 -117.5l-3 2q-78 53 -129 125zM193 164q0 68 48 116t115 48q68 0 116 -48.5t48 -115.5q0 -68 -48 -116t-116 -48t-115.5 48t-47.5 116z" />
<glyph unicode="@" horiz-adv-x="1814" d="M61 -43v1010q0 109 41 203t112 164.5t165 111.5t203 41h651q109 0 203 -41t164.5 -111.5t111.5 -165t41 -202.5v-447q0 -109 -41 -203t-111.5 -164.5t-165 -111.5t-202.5 -41h-55v487q0 78 -21 138q-31 94 -97.5 153.5t-152.5 59.5q-57 0 -106 -28t-86 -75t-58.5 -110.5 t-21.5 -137.5q0 -72 21.5 -135t58.5 -110t86 -75t106 -28q66 0 122 38t93 102v-265q-49 -23 -103 -35t-112 -12q-109 0 -204 41t-165.5 111.5t-111.5 165t-41 202.5q0 109 41 204t111.5 166t166 112t203.5 41q106 0 201.5 -41t166.5 -112t111.5 -166t40.5 -204v-213 q35 47 55.5 108.5t22.5 133.5v457q0 72 -22.5 134t-59.5 109.5t-86 74t-104 26.5h-651q-55 0 -105.5 -26.5t-87.5 -74t-58.5 -110t-21.5 -133.5v-1020q0 -72 21.5 -135.5t58.5 -110.5t87 -73.5t106 -26.5v-170q-109 0 -203 41t-165 111.5t-112 164.5t-41 203z" />
<glyph unicode="A" horiz-adv-x="1163" d="M61 4v997v5q2 106 43 200t112 165t165.5 111t200.5 40q109 0 203 -41t164.5 -112t111.5 -166t41 -202v-933q-53 -29 -112.5 -46.5t-135.5 -17.5v1002q0 72 -22.5 134t-59.5 109t-86 75t-104 28t-105.5 -28t-87.5 -76t-58.5 -111.5t-21.5 -135.5h2v-6q0 -72 21.5 -134 t58.5 -109t86 -74t105 -27q66 0 122 38t95 102v-263q-100 -47 -217 -47q-74 0 -142.5 20.5t-128.5 55.5l-2 -489q-51 -29 -111.5 -46.5t-136.5 -17.5z" />
<glyph unicode="B" horiz-adv-x="1153" d="M61 492v454q0 162 45.5 267.5t115 168t155.5 87t166 24.5q78 0 141.5 -23.5t107.5 -64.5t68.5 -96.5t24.5 -118.5q0 -72 -30 -134.5t-83 -103.5q72 -27 132.5 -70.5t104.5 -103t68.5 -132.5t24.5 -154q0 -109 -41 -203t-111.5 -165t-166 -112t-201.5 -41q-109 0 -203 41 t-165 112t-112 165t-41 203zM307 1020l2 -535q0 -72 21.5 -134t58.5 -109t87.5 -74t105.5 -27t105 28t87 75t58.5 110.5t21.5 137.5h-2v6q0 72 -21.5 134t-58.5 108t-86 73t-104 27q-66 0 -122.5 -37t-94.5 -103v306q100 47 221 47q43 2 73.5 41t30.5 96q0 55 -39 95 t-104 40q-18 0 -58 -4t-80 -31.5t-71 -90t-31 -179.5z" />
<glyph unicode="C" horiz-adv-x="1062" d="M41 748q0 160 50 301t137 246.5t204 166t250 60.5q92 0 173 -29t146 -82q-12 -41 -32.5 -80t-50.5 -78v-2q-68 67 -128 85q-55 17 -99 16h-9q-84 -2 -154.5 -49.5t-121 -127t-78 -189t-27.5 -238.5t27.5 -239t78 -189.5t121 -127t154.5 -49.5h10q44 -1 98 15 q60 18 128 84q31 -39 51 -78t32 -80q-66 -53 -146.5 -82t-172.5 -29q-133 0 -250 60.5t-204 166t-137 247t-50 301.5z" />
<glyph unicode="D" horiz-adv-x="1220" d="M61 0v1438q51 27 114 42t134 15v-1327h221q84 0 156 40t124 112.5t82 174t30 224.5v59q0 123 -30 224.5t-82 174t-124 112.5t-156 40h-163v166h172q133 0 249.5 -54.5t203.5 -150.5t137.5 -227t50.5 -285v-59q0 -154 -50.5 -286t-137.5 -228t-203.5 -150.5t-249.5 -54.5 h-478z" />
<glyph unicode="E" horiz-adv-x="1085" d="M51 522v453q0 109 41 203t111.5 164.5t165 111.5t202.5 41h453v-170h-453q-55 0 -104 -26.5t-86 -73.5t-58.5 -110.5t-21.5 -135.5v-463q0 -72 21.5 -134.5t58.5 -109.5t86 -73.5t104 -26.5h453v-172h-453q-109 0 -203 41t-164.5 111.5t-111.5 166t-41 203.5zM356 725 v166h410v-166h-410z" />
<glyph unicode="F" horiz-adv-x="907" d="M61 0v975q0 106 41 201.5t112 166t165 111.5t203 41h325v-170h-325q-55 0 -105.5 -27.5t-87.5 -74.5t-58.5 -109.5t-21.5 -134.5v-918q-53 -29 -112.5 -45t-135.5 -16zM367 725v166h333v-166h-333z" />
<glyph unicode="G" horiz-adv-x="1243" d="M39 750q0 160 50 301t137 246.5t204 166t250 60.5q92 0 173 -29t146 -82q-12 -41 -32.5 -80t-51.5 -78v-2q-68 66 -128 85q-54 16 -98 16h-9q-84 -2 -154.5 -49.5t-122 -127t-79 -189t-27.5 -238.5t27.5 -239t79 -191.5t122 -128t154.5 -46.5q76 0 136.5 28t102.5 75 t63.5 110.5t21.5 137.5v155h-271v170h520v-325q0 -109 -42 -204t-116.5 -166t-180 -112t-234.5 -41q-133 0 -250 61.5t-204 167t-137 247t-50 301.5z" />
<glyph unicode="H" horiz-adv-x="1204" d="M82 4v1432q43 23 92 39t109 20h47l2 -559q59 37 127.5 57.5t142.5 20.5q59 0 113.5 -13.5t103.5 -35.5v-263q-39 63 -95 101.5t-122 38.5q-55 0 -104 -27t-86 -74t-58.5 -109.5t-21.5 -133.5l-2 -432q-51 -29 -111.5 -45.5t-136.5 -16.5zM874 4v1432q43 23 92.5 39 t106.5 20h49v-1429q-53 -29 -112.5 -45.5t-135.5 -16.5z" />
<glyph unicode="I" horiz-adv-x="411" d="M82 4v1430q53 29 112.5 45t135.5 16v-1432q-43 -23 -92.5 -39t-106.5 -20h-49z" />
<glyph unicode="J" horiz-adv-x="942" d="M20 84q12 41 33 80t51 78v2q68 -66 128 -84q55 -17 99 -17h9q55 0 104.5 27t86 74t59 109.5t22.5 133.5v943q53 29 112.5 46t135.5 17v-999q0 -109 -41 -203t-111.5 -165t-166 -112t-201.5 -41q-92 0 -173 29t-147 82z" />
<glyph unicode="K" horiz-adv-x="1136" d="M61 -2v1427q53 29 112.5 46.5t135.5 17.5v-1432v2q-53 -29 -113.5 -45t-134.5 -16zM365 543v266q100 47 217 47q45 0 68.5 28.5t43.5 69.5q14 27 42 79t57 106q33 61 69 129q68 0 123 -14.5t105 -39.5l-232 -442q111 -70 177.5 -184.5t66.5 -255.5v-273 q-53 -29 -113.5 -45t-134.5 -16v379q0 72 -21.5 129t-58.5 96t-87 59.5t-105 20.5q-66 0 -122.5 -38t-94.5 -101z" />
<glyph unicode="L" horiz-adv-x="923" d="M61 494v1001q76 0 135.5 -16.5t112.5 -44.5v-947q0 -72 21.5 -134t58.5 -109t87 -74t106 -27h9q45 1 99 17q60 18 127 84l2 -2q29 -39 49.5 -78t34.5 -80q-68 -53 -148.5 -82t-172.5 -29q-109 0 -203 41t-165 112t-112 165t-41 203z" />
<glyph unicode="M" horiz-adv-x="1851" d="M61 0v995q0 109 37 203t102.5 165t155.5 112t199 41q106 0 197.5 -41t158 -112t103.5 -165t37 -203v-934q-53 -29 -113.5 -45t-136.5 -16v995q0 74 -17.5 137.5t-49.5 110.5t-78 75t-101 28t-101 -28t-78 -75t-49.5 -110.5t-17.5 -137.5v-934q-53 -29 -113.5 -45 t-134.5 -16zM954 1376q66 66 152 103t190 37q106 0 197.5 -41t157 -112t102.5 -165t37 -203v-934q-53 -29 -112.5 -45t-135.5 -16v995q0 74 -17.5 137.5t-49 110.5t-77.5 75t-102 28q-78 0 -133 -49.5t-84 -129.5q-39 119 -125 209z" />
<glyph unicode="N" d="M61 0v997q0 106 37 201.5t103.5 166.5t156.5 112t199 41q106 0 197.5 -41t157 -112t102.5 -166t37 -202v-934q-51 -29 -111.5 -46t-136.5 -17v997q0 72 -17.5 135.5t-49 111.5t-78 76t-101.5 28t-101 -28t-78 -76t-49.5 -111.5t-17.5 -135.5v-934q-53 -29 -113.5 -46 t-136.5 -17z" />
<glyph unicode="O" horiz-adv-x="1280" d="M41 743q0 160 44 301.5t123 247t188.5 166t242.5 60.5t243.5 -60.5t189.5 -166t123 -247t44 -301.5t-44 -301t-123 -245.5t-189.5 -165t-243.5 -60.5t-242.5 60.5t-188.5 165t-123 246t-44 300.5zM289 743q0 -129 23.5 -238.5t67.5 -190.5t109.5 -127t149.5 -46t149.5 46 t109.5 127t67.5 190.5t23.5 238.5t-23.5 239t-67.5 189.5t-109.5 125.5t-149.5 46t-149.5 -46t-109.5 -125.5t-67.5 -189.5t-23.5 -239z" />
<glyph unicode="P" horiz-adv-x="1142" d="M61 0v997q0 106 41 201.5t112 166.5t165 112t203 41t203 -41t164.5 -112t111.5 -166t41 -202q0 -109 -41 -203t-111.5 -164.5t-165 -111.5t-202.5 -41q-115 0 -215 47v262q37 -63 93 -101t122 -38q57 0 106 27.5t86 75t58.5 112t21.5 135.5q0 72 -21.5 135.5t-58.5 111.5 t-86 76t-106 28q-55 0 -104.5 -27t-86.5 -74t-58.5 -110.5t-21.5 -135.5v-938q-53 -29 -113.5 -46t-136.5 -17z" />
<glyph unicode="Q" horiz-adv-x="1335" d="M41 743q0 160 44 301.5t123 247t188.5 166t242.5 60.5t243.5 -60.5t189.5 -166t123 -247t44 -301.5q0 -121 -24.5 -230.5t-71.5 -201.5l151 -262q-47 -23 -102 -36t-121 -13l-344 590q59 29 113.5 42t107.5 15l33 -55q4 35 7 72.5t3 78.5q0 129 -23.5 239t-68.5 189.5 t-110.5 125.5t-149.5 46t-149.5 -46t-109.5 -125.5t-67.5 -189.5t-23.5 -239t23.5 -238.5t67.5 -190.5t109.5 -127t149.5 -46q70 0 125 31t98 86l101 -174q-68 -53 -150 -83t-174 -30q-133 0 -242.5 60.5t-188.5 165t-123 246t-44 300.5z" />
<glyph unicode="R" horiz-adv-x="1165" d="M61 0v997q0 106 41 201.5t112 166.5t166 112t204 41q106 0 201.5 -35t166 -97.5t111.5 -151.5t41 -196q0 -139 -65.5 -232t-176.5 -161l293 -594q-47 -23 -103.5 -37t-123.5 -14q-55 109 -103 203l-129 258q-23 41 -45 69.5t-67 28.5q-117 0 -217 47v266q37 -63 93 -101 t124 -38q55 0 104 20.5t86 59.5t58.5 96.5t21.5 128.5q0 72 -21.5 129.5t-58.5 97.5t-86 61.5t-104 21.5t-105.5 -28t-87.5 -75t-58.5 -109.5t-21.5 -134.5v-938q-53 -29 -113.5 -46t-136.5 -17z" />
<glyph unicode="S" horiz-adv-x="1046" d="M41 195q18 45 47 91t57 79q35 -59 82 -107q41 -41 99.5 -74.5t134.5 -38.5q12 -1 23 -1q100 0 160 50q66 54 81 130q4 20 4 42q-1 58 -29 119q-38 84 -137 138q-63 35 -103 56t-64.5 35.5t-39 22.5t-30 16.5t-35 20.5t-53.5 33q-182 106 -182 307q0 24 3 49q6 53 33 118 t83 119q55 54 143 88q74 29 177 29q18 0 37 -1q92 -4 171 -39t143 -91q-16 -41 -38 -78.5t-54 -72.5l-2 -2q-63 70 -122 91.5t-108 21.5q-96 0 -147 -55.5t-56 -123.5q0 -5 -1 -10q0 -29 12 -53q12 -28 36.5 -53t62.5 -49.5t87 -51.5q33 -18 48.5 -26.5t21.5 -11.5t9 -4 t11 -6t28.5 -15t61.5 -33q61 -33 118.5 -74t100.5 -93q43 -51 68 -119q22 -58 22 -131q0 -12 -1 -23q-6 -104 -52.5 -190.5t-123 -145t-178.5 -86.5q-75 -21 -158 -22q-29 0 -60 3q-66 6 -124 29t-108 54.5t-91 67.5t-68 71z" />
<glyph unicode="T" horiz-adv-x="1040" d="M0 1325v166h639v-1434q-51 -27 -109.5 -42t-130.5 -15v1325h-399zM694 1325v166h346v-166h-346z" />
<glyph unicode="U" d="M61 496v934q53 29 112.5 45t135.5 16v-995q0 -74 17.5 -137.5t49.5 -110.5t78 -75t101 -28q57 0 102 28t77 75t49.5 110.5t17.5 137.5v934q53 29 113.5 45t136.5 16v-995q0 -109 -37 -204t-102.5 -166t-156.5 -112t-200 -41t-199 41t-155.5 112t-102.5 166t-37 204z" />
<glyph unicode="V" horiz-adv-x="1284" d="M41 1442q47 23 103.5 36t121.5 13l377 -1118l375 1118q66 0 122 -13.5t103 -35.5l-534 -1471h-134z" />
<glyph unicode="W" horiz-adv-x="1853" d="M61 496v934q53 29 114 45t134 16v-995q0 -74 17.5 -137.5t49.5 -110.5t78 -75t101 -28q78 0 133 49.5t84 127.5q39 -121 127 -207q-66 -66 -153 -104t-191 -38q-109 0 -199 41t-155.5 112t-102.5 166t-37 204zM803 496v934q51 29 111.5 45t136.5 16v-995q0 -74 17 -137.5 t49 -110.5t78 -75t101 -28t101.5 28t78 75t49 110.5t17.5 137.5v934q53 29 113.5 45t136.5 16v-995q0 -109 -37 -204t-103.5 -166t-158 -112t-197.5 -41q-109 0 -198.5 41t-155 112t-102.5 166t-37 204z" />
<glyph unicode="X" horiz-adv-x="1167" d="M63 0v381q0 137 63.5 250.5t170.5 183.5q-98 72 -146.5 147.5t-68 147.5t-19.5 135.5v108.5v76q51 29 112 45t136 16v-274q0 -72 21.5 -130.5t58.5 -99.5t86 -63.5t107 -22.5q55 0 104 22.5t86 63.5t58.5 99.5t21.5 130.5v213q53 29 113.5 45t136.5 16v-135v-109.5 t-19.5 -135.5t-67.5 -148.5t-147 -145.5q-59 -45 -136 -65.5t-150 -20.5q-57 0 -106.5 -27.5t-86.5 -75.5t-58.5 -111.5t-21.5 -135.5v-318q-53 -29 -113.5 -46t-134.5 -17zM698 696q111 27 201 97q94 -72 149.5 -178.5t55.5 -233.5v-318q-53 -29 -113.5 -46t-136.5 -17v381 q0 106 -43 190t-113 125z" />
<glyph unicode="Y" horiz-adv-x="1071" d="M41 1251v179q53 29 113.5 45t136.5 16v-240q0 -72 17.5 -136t49 -111.5t76.5 -75t103 -27.5q55 0 101 27.5t78 75t49 112t17 135.5v179q53 29 113.5 45t134.5 16v-240q0 -109 -37 -203t-102.5 -164.5t-156.5 -111.5t-197 -41q-109 0 -200 41t-156.5 111.5t-102.5 165 t-37 202.5zM416 0v690q55 -14 121 -14q31 0 60.5 3t57.5 11v-633q-51 -27 -109.5 -42t-129.5 -15z" />
<glyph unicode="Z" horiz-adv-x="1071" d="M41 0v166l698 1104h291l-698 -1104h698v-166h-989zM41 1325v166h989v-166h-989z" />
<glyph unicode="a" horiz-adv-x="1142" d="M41 487q0 109 41 203t111.5 165t164.5 112t203 41t203 -41t164.5 -112t111.5 -165t41 -203v-487q-74 0 -134 16.5t-113 44.5v426q0 37 -5.5 71t-15.5 67q-33 94 -99.5 153.5t-152.5 59.5q-55 0 -105 -28t-87 -75t-58.5 -110.5t-21.5 -137.5q0 -72 21.5 -135t58.5 -110 t87 -75t105 -28q66 0 122 37t95 103v-265q-49 -23 -103 -35t-114 -12q-109 0 -203 41t-164.5 111.5t-111.5 165t-41 202.5z" />
<glyph unicode="b" horiz-adv-x="1163" d="M61 487v938q53 29 114 45.5t134 16.5v-555v-449q0 -72 21.5 -134t58.5 -109t87 -75t106 -28q55 0 105 28t87 75t58.5 111.5t21.5 135.5q0 74 -21.5 137.5t-58.5 110.5t-87 75t-105 28q-66 0 -122.5 -38t-92.5 -102v263q100 47 215 47q106 0 201.5 -41t166 -112 t111.5 -165t41 -203t-41 -203t-111.5 -164.5t-166 -111.5t-201.5 -41q-109 0 -203 41t-165 111.5t-112 165t-41 202.5z" />
<glyph unicode="c" horiz-adv-x="931" d="M51 487q0 109 41 203t111.5 165t165 112t202.5 41q92 0 173 -29t147 -82q-14 -41 -33.5 -80t-50.5 -78l-2 -2q-67 67 -127 85q-55 17 -98 16h-9q-57 -2 -106 -30t-86 -75t-58.5 -109.5t-21.5 -136.5q0 -72 21.5 -135t58.5 -110t86 -75t106 -30h9q44 1 98 17q60 18 127 84 l2 -2q31 -39 50.5 -78t33.5 -80q-66 -53 -146.5 -82t-173.5 -29q-109 0 -203 41t-164.5 111.5t-111.5 165t-41 202.5z" />
<glyph unicode="d" horiz-adv-x="1165" d="M61 487q0 109 41 203t112 165t165 112t203 41q117 0 217 -47v-263q-37 63 -93.5 101.5t-123.5 38.5q-55 0 -104.5 -28t-86.5 -75t-58.5 -110.5t-21.5 -137.5q0 -72 21.5 -136t58.5 -111t86 -75t105 -28q55 0 104 28t86 75t59.5 109.5t22.5 133.5v942q53 29 113.5 45.5 t136.5 16.5v-1000q0 -109 -41 -203t-111.5 -164.5t-166 -111.5t-203.5 -41q-109 0 -203 41t-165 111.5t-112 165t-41 202.5z" />
<glyph unicode="e" horiz-adv-x="1042" d="M51 487q0 109 41 204t111.5 166t165.5 112t204 41q88 0 168 -32t138.5 -85t92.5 -123q30 -61 30 -126q0 -10 -1 -19q-4 -90 -59 -152.5t-142 -96.5t-199 -41q-27 -2 -54 -2q-86 0 -174 17q-29 74 -29 152v24q110 -22 185 -22q31 0 56 4q87 12 130 43t53 64.5t10 46.5 q0 10 -5 37.5t-26.5 56t-63.5 50t-118 21.5q-59 0 -107 -25.5t-83 -71.5t-54.5 -110.5t-19.5 -140.5q0 -72 21.5 -133t58.5 -107t86 -73t106 -27q11 -1 22 -1q37 0 71 10q44 14 75 34q37 23 70 54l121 -123q-70 -68 -162 -107t-197 -39q-109 0 -204 41t-165.5 111.5 t-111.5 165t-41 202.5z" />
<glyph unicode="f" horiz-adv-x="903" d="M61 0v969q0 106 41 201.5t112 166t165 111.5t203 41q92 0 174 -28.5t147 -82.5q-29 -84 -84 -157l-2 -2q-68 63 -132 81.5t-103 18.5q-55 0 -105.5 -27.5t-87.5 -76t-58.5 -112t-21.5 -134.5v-906q-51 -29 -111.5 -46t-136.5 -17zM367 768v190h262v-190h-262z" />
<glyph unicode="g" d="M61 483q0 106 37 201.5t102.5 166.5t155.5 112t199 41q106 0 197.5 -41t158 -112t103.5 -166t37 -202l-2 -526q0 -109 -41 -203t-112 -164.5t-165 -111.5t-203 -41q-92 0 -173 28.5t-146 81.5q12 41 32.5 80t51.5 78l2 2q66 -66 126 -84q54 -16 97 -16h10 q55 0 104.5 26.5t86.5 73.5t59.5 110.5t22.5 135.5v534q0 72 -17.5 135.5t-50.5 110.5t-78 74t-100 27t-101 -28t-78 -76t-49.5 -111.5t-17.5 -135.5t17.5 -136t49.5 -111.5t78 -75t101 -27.5q66 0 110 38t80 101v-262q-49 -23 -90 -35t-100 -12q-109 0 -199 41 t-155.5 111.5t-102.5 165t-37 202.5z" />
<glyph unicode="h" d="M61 0v1425q53 29 112.5 45.5t135.5 16.5v-1426q-53 -29 -113.5 -45t-134.5 -16zM365 698v263q51 23 92 35t98 12q109 0 200 -41t156.5 -112t102.5 -165t37 -203v-426q-53 -29 -113.5 -45t-136.5 -16v487q0 74 -17.5 137.5t-49.5 110.5t-77 75t-102 28q-66 0 -109 -38 t-81 -102z" />
<glyph unicode="i" horiz-adv-x="444" d="M82 1251q0 59 40 99.5t99 40.5t100 -40t41 -100q0 -59 -41 -100t-100 -41t-99 41t-40 100zM96 4v899q53 29 113.5 46.5t136.5 17.5v-904q-88 -47 -201 -59h-49z" />
<glyph unicode="j" horiz-adv-x="495" d="M-123 -393q55 0 104.5 26.5t86 73.5t58 110.5t21.5 135.5v950q53 29 114 46.5t136 17.5v-1010q0 -109 -41 -203t-111.5 -164.5t-165.5 -111.5t-202 -41v170zM133 1251q0 59 40 99.5t99 40.5t100.5 -40t41.5 -100q0 -59 -41 -100t-101 -41q-59 0 -99 41t-40 100z" />
<glyph unicode="k" horiz-adv-x="1163" d="M61 0v1425q51 29 111.5 45.5t136.5 16.5v-1426q-53 -29 -113.5 -45t-134.5 -16zM365 389v266q100 47 217 47q45 0 68.5 29t43.5 70q14 27 29.5 56.5t28.5 53.5q14 29 28 56q66 0 122 -14.5t104 -37.5l-148 -297q111 -70 177.5 -184.5t66.5 -255.5v-117 q-53 -29 -113.5 -45t-134.5 -16v223q0 72 -21.5 129.5t-58.5 96t-87 59t-105 20.5q-66 0 -122.5 -37.5t-94.5 -101.5z" />
<glyph unicode="l" horiz-adv-x="663" d="M82 520v905q53 29 113.5 45.5t134.5 16.5v-967q0 -74 21.5 -137.5t58 -110.5t87 -74.5t105.5 -27.5v-170q-109 0 -203 41t-164.5 111.5t-111.5 165t-41 202.5z" />
<glyph unicode="m" horiz-adv-x="1853" d="M61 0v487q0 109 37 203t102.5 165t156.5 112t200 41q106 0 197.5 -41t157 -112t102.5 -165t37 -203v-426q-53 -29 -113.5 -45t-134.5 -16v487q0 74 -17.5 137.5t-49 110.5t-78 75t-101.5 28q-57 0 -103 -28t-78 -75t-49.5 -110.5t-17.5 -137.5v-426q-51 -29 -111.5 -45 t-136.5 -16zM954 868q66 66 152 103t190 37q109 0 200 -41t156.5 -112t102.5 -165t37 -203v-426q-53 -29 -113.5 -45t-136.5 -16v487q0 74 -17.5 137.5t-49 110.5t-76.5 75t-103 28q-76 0 -132 -49.5t-85 -129.5q-37 121 -125 209z" />
<glyph unicode="n" d="M61 0v489q0 106 37 201.5t102.5 166.5t155.5 112t199 41t200 -41t156.5 -112t102.5 -166t37 -202v-426q-53 -29 -113.5 -46t-136.5 -17v489q0 72 -17.5 135.5t-49.5 111.5t-77 76t-102 28q-55 0 -101 -28t-78 -76t-49.5 -111.5t-17.5 -135.5v-426q-53 -29 -113.5 -46 t-134.5 -17z" />
<glyph unicode="o" horiz-adv-x="1142" d="M51 489q0 106 41 201.5t111.5 166.5t164.5 112t203 41q106 0 201.5 -41t166.5 -112t112 -166t41 -202q0 -109 -41 -202.5t-112 -164.5t-166 -112t-202 -41q-109 0 -203 41t-164.5 112t-111.5 165t-41 202zM299 489q0 -72 21.5 -136t58.5 -111t86 -75t106 -28 q55 0 105.5 28t87.5 75t58.5 111.5t21.5 135.5q0 72 -21.5 135.5t-58.5 111.5t-87 76t-106 28q-57 0 -106 -28t-86 -76t-58.5 -111.5t-21.5 -135.5z" />
<glyph unicode="p" horiz-adv-x="1153" d="M61 489q0 106 41 201.5t112 166.5t165 112t203 41q106 0 201.5 -41t166 -112t111.5 -166t41 -202q0 -109 -41 -202.5t-111.5 -164.5t-166 -112t-201.5 -41q-115 0 -215 47v263q37 -63 93 -101.5t122 -38.5q55 0 105 28t87 75t58.5 111.5t21.5 135.5q0 72 -21.5 135.5 t-58.5 111.5t-87 76t-105 28t-105.5 -27t-87.5 -74t-58.5 -110.5t-21.5 -134.5v-943q-53 -29 -112.5 -45t-135.5 -16v999z" />
<glyph unicode="q" horiz-adv-x="1155" d="M51 489q0 106 41 201.5t111.5 166.5t164.5 112t203 41t204 -41t166 -112t112 -166t41 -202v-938q-53 -29 -113.5 -45t-136.5 -16v1004q0 72 -22.5 135t-59.5 110t-86 74t-105 27q-55 0 -104 -28t-86 -76t-58.5 -111.5t-21.5 -135.5t21.5 -136t58.5 -111t86 -75t104 -28 q68 0 124.5 38t92.5 102v-263q-100 -47 -217 -47q-109 0 -203 41t-164.5 112t-111.5 165t-41 202z" />
<glyph unicode="r" horiz-adv-x="778" d="M61 4v457q0 106 41 201.5t112 166t165 111.5t203 41q47 0 91 -8t85 -25l-70 -155q-44 17 -88 17l-18 -1q-55 0 -104.5 -27.5t-86.5 -75t-58.5 -111t-21.5 -134.5v-395q-53 -29 -113.5 -45.5t-136.5 -16.5z" />
<glyph unicode="s" horiz-adv-x="843" d="M61 115q18 37 42 70.5t59 68.5q57 -70 113.5 -93.5t103.5 -27.5q13 -1 26 -1q75 0 113 31q45 36 49 91q2 35 -13 59.5t-45 43t-75 35t-102 36.5q-78 31 -128 66.5t-79 74.5t-39 79q-7 29 -7 57q0 11 1 22q4 49 29.5 97t70.5 85q46 37 110 55q45 13 98 13q23 0 48 -2 q90 -10 165 -47t134 -94q-18 -37 -41.5 -72t-58.5 -68q-59 70 -115.5 93.5t-103.5 25.5q-27 2 -51.5 -6t-42 -23.5t-25.5 -37t0 -46.5q8 -23 24.5 -38t45 -29.5t70 -30t100.5 -35.5q123 -47 187 -125q57 -69 57 -159q0 -11 -1 -23q-4 -74 -41 -130t-93 -93t-129 -53 q-59 -13 -119 -14q-15 0 -29 1q-84 6 -166 46t-142 98z" />
<glyph unicode="t" horiz-adv-x="665" d="M82 520v776q53 29 113.5 46.5t136.5 17.5v-840q0 -72 21.5 -135t58.5 -110.5t86 -75t106 -27.5v-172q-109 0 -204 41t-165.5 111.5t-111.5 165t-41 202.5zM387 770v188h217v-188h-217z" />
<glyph unicode="u" d="M61 492v426q53 29 114 46t136 17v-489q0 -72 17.5 -136.5t49.5 -111.5t77 -75t102 -28q55 0 101.5 28t78 75t49 111.5t17.5 136.5v426q53 29 113.5 46t134.5 17v-489q0 -109 -37 -203t-102.5 -165t-156.5 -112t-198 -41q-109 0 -200 41t-156.5 112t-102.5 165t-37 203z " />
<glyph unicode="v" horiz-adv-x="1077" d="M41 930q49 23 104.5 37t120.5 14l273 -655l272 655q66 0 122 -14.5t103 -36.5l-430 -959h-133z" />
<glyph unicode="w" horiz-adv-x="1853" d="M61 492v426q53 29 114 46t136 17v-489q0 -72 17.5 -136.5t49.5 -111.5t77 -75t102 -28q76 0 132 49.5t85 128.5q37 -121 125 -208q-66 -66 -151.5 -103t-190.5 -37q-109 0 -200 41t-156.5 112t-102.5 165t-37 203zM803 492v426q53 29 112.5 46t135.5 17v-489 q0 -72 17 -136.5t49 -111.5t78 -75t101 -28q57 0 102.5 28t77 75t49 111.5t17.5 136.5v426q53 29 113.5 46t136.5 17v-489q0 -109 -37 -203t-102.5 -165t-156.5 -112t-200 -41t-198.5 41t-155 112t-102.5 165t-37 203z" />
<glyph unicode="x" horiz-adv-x="1165" d="M61 63v43q0 137 64.5 251t171.5 186q-96 61 -156.5 159.5t-74.5 217.5q41 23 88 38t102 19h55q0 -72 21.5 -136.5t58.5 -111.5t86 -74.5t107 -27.5q55 0 104 27.5t86 74.5t58.5 111.5t21.5 136.5h55q55 -4 102.5 -19.5t88.5 -37.5q0 -31 -11.5 -75t-37 -94.5t-64.5 -99.5 t-93 -91t-125 -69.5t-159 -33.5h-26q-57 0 -106.5 -28t-86.5 -75t-58.5 -110.5t-21.5 -137.5v-106q-76 0 -136 17.5t-114 45.5zM698 424q111 24 201 96q92 -72 148.5 -179.5t56.5 -234.5v-43q-53 -29 -113.5 -46t-136.5 -17v106q0 106 -43 190.5t-113 127.5z" />
<glyph unicode="y" d="M61 492v426q53 29 114 46t136 17v-489q0 -72 17.5 -136.5t49.5 -111.5t77 -75t102 -28q66 0 109 38t82 102v-263q-51 -23 -92.5 -35t-98.5 -12q-109 0 -200 41t-156.5 112t-102.5 165t-37 203zM211 -451q27 84 82 158l2 2q68 -66 128 -83t107 -17q55 0 104.5 26.5 t86.5 73.5t59.5 109.5t22.5 134.5v965q53 29 112.5 46t135.5 17v-1022q0 -109 -41 -203t-112 -164.5t-166 -111.5t-202 -41q-92 0 -173 28.5t-146 81.5z" />
<glyph unicode="z" horiz-adv-x="964" d="M61 0v172l549 582h293l-551 -588h551v-166h-842zM61 811v166h842v-166h-842z" />
<glyph unicode="&#xab;" horiz-adv-x="1079" d="M61 518q55 12 118 48t117 98.5t94 154.5t52 219h133q12 -47 16.5 -107.5t-6 -130t-42 -142t-88.5 -140.5q57 -68 88.5 -140.5t42 -141t6.5 -130t-17 -106.5h-133q-12 127 -52 219t-94 154.5t-117 97.5t-118 47zM483 518q55 12 118 48t118 98.5t95 154.5t52 219h133 q12 -47 16.5 -107.5t-7 -130t-42 -142t-87.5 -140.5q57 -68 87.5 -140.5t42 -141t7.5 -130t-17 -106.5h-133q-12 127 -52 219t-95 154.5t-118 97.5t-118 47z" />
<glyph unicode="&#xad;" horiz-adv-x="714" d="M61 455v190h592v-190h-592z" />
<glyph unicode="&#xb0;" horiz-adv-x="665" d="M61 1266q0 55 21.5 105t58.5 87t86.5 58.5t106.5 21.5q55 0 104 -21.5t86 -58.5t58.5 -87t21.5 -105t-21.5 -105.5t-58.5 -87.5t-86 -58.5t-104 -21.5q-57 0 -106.5 21.5t-86.5 58.5t-58.5 87t-21.5 106zM207 1266q0 -53 37 -90t90 -37t89 36.5t36 90.5q0 53 -36 90 t-89 37t-90 -37t-37 -90z" />
<glyph unicode="&#xbb;" horiz-adv-x="1077" d="M63.5 106.5q-4.5 61.5 6 130t41 141.5t88.5 140q-57 68 -88 140.5t-41.5 142t-6 130t16.5 107.5h133q12 -127 52 -219t94.5 -154.5t117 -98.5t117.5 -48q-55 -12 -117.5 -47t-117 -97.5t-94.5 -154.5t-52 -219h-133q-12 45 -16.5 106.5zM485 930.5q4 60.5 17 107.5h133 q12 -127 52 -219t94.5 -154.5t117 -98.5t117.5 -48q-55 -12 -117.5 -47t-117 -97.5t-94.5 -154.5t-52 -219h-133q-12 45 -16.5 106.5t7 130t42 141.5t88.5 140q-57 68 -88 140.5t-42.5 142t-7.5 130z" />
<glyph unicode="&#xe0;" horiz-adv-x="1153" d="M51 487q0 -109 41 -203t111.5 -164.5t165 -111.5t202.5 -41q59 0 113.5 12.5t103.5 34.5v265q-39 -66 -95 -103t-122 -37q-55 0 -105 28t-87 75t-58.5 110.5t-21.5 134.5q0 74 21.5 137.5t58.5 110.5t87 75t105 28q86 0 153 -59.5t99 -153.5q10 -33 15.5 -67t5.5 -71 v-426q53 -29 113.5 -45t134.5 -16v487q0 109 -41 203t-112 165t-165 112t-203 41t-203 -41t-164.5 -112t-111.5 -165t-41 -203zM246 1405q51 33 105.5 43t105.5 16q37 -80 85 -125t102 -66.5t112.5 -24.5t113.5 5l74 -84q-63 -23 -145 -34t-173 8.5t-188.5 80t-191.5 181.5z " />
<glyph unicode="&#xe1;" horiz-adv-x="1153" d="M51 487q0 109 41 203t111.5 165t164.5 112t203 41t203 -41t165 -112t112 -165t41 -203v-487q-74 0 -134.5 16.5t-113.5 44.5v426q0 37 -5 71t-16 67q-33 94 -99.5 153.5t-152.5 59.5q-55 0 -105 -28t-87 -75t-58.5 -110.5t-21.5 -137.5q0 -72 21.5 -135t58.5 -110t87 -75 t105 -28q66 0 122.5 37t94.5 103v-265q-49 -23 -103 -35t-114 -12q-109 0 -203 41t-164.5 111.5t-111.5 165t-41 202.5zM207 1198l80 80q55 -10 112.5 -11t112.5 17.5t106.5 60t92.5 119.5q51 -10 105.5 -23t103.5 -48q-100 -115 -202 -169.5t-195 -68.5t-174 2.5t-142 40.5 z" />
<glyph unicode="&#xe2;" horiz-adv-x="1153" d="M51 487q0 109 41 203t111.5 165t164.5 112t203 41t203 -41t165 -112t112 -165t41 -203v-487q-74 0 -134.5 16.5t-113.5 44.5v426q0 37 -5 71t-16 67q-33 94 -99.5 153.5t-152.5 59.5q-55 0 -105 -28t-87 -75t-58.5 -110.5t-21.5 -137.5q0 -72 21.5 -135t58.5 -110t87 -75 t105 -28q66 0 122.5 37t94.5 103v-265q-49 -23 -103 -35t-114 -12q-109 0 -203 41t-164.5 111.5t-111.5 165t-41 202.5zM260 1135v86q82 6 140.5 31.5t98.5 60.5t62.5 74.5t30.5 76.5q8 -37 30.5 -76.5t62.5 -74.5t98.5 -60.5t140.5 -31.5v-86q-31 -8 -70 -11.5t-83 4 t-90 28t-89 56.5q-43 -37 -90 -57t-91 -27.5t-83 -4.5t-68 12z" />
<glyph unicode="&#xe3;" horiz-adv-x="1153" d="M51 487q0 109 41 203t111.5 165t164.5 112t203 41t203 -41t165 -112t112 -165t41 -203v-487q-74 0 -134.5 16.5t-113.5 44.5v426q0 37 -5 71t-16 67q-33 94 -99.5 153.5t-152.5 59.5q-55 0 -105 -28t-87 -75t-58.5 -110.5t-21.5 -137.5q0 -72 21.5 -135t58.5 -110t87 -75 t105 -28q66 0 122.5 37t94.5 103v-265q-49 -23 -103 -35t-114 -12q-109 0 -203 41t-164.5 111.5t-111.5 165t-41 202.5zM186 1116l7 121q96 90 195 110.5t214 -20.5q57 -23 105.5 -39t92.5 -21t84 5t81 45l-7 -121q-80 -68 -164.5 -75t-199.5 36q-55 20 -108.5 33.5 t-103.5 11.5t-99.5 -21.5t-96.5 -64.5z" />
<glyph unicode="&#xe4;" horiz-adv-x="1153" d="M51 487q0 109 41 203t111.5 165t164.5 112t203 41t203 -41t165 -112t112 -165t41 -203v-487q-74 0 -134.5 16.5t-113.5 44.5v426q0 37 -5 71t-16 67q-33 94 -99.5 153.5t-152.5 59.5q-55 0 -105 -28t-87 -75t-58.5 -110.5t-21.5 -137.5q0 -72 21.5 -135t58.5 -110t87 -75 t105 -28q66 0 122.5 37t94.5 103v-265q-49 -23 -103 -35t-114 -12q-109 0 -203 41t-164.5 111.5t-111.5 165t-41 202.5zM256 1262q0 51 37 86.5t88 35.5q53 0 89 -35.5t36 -86.5q0 -53 -36 -89t-89 -36q-51 0 -88 35.5t-37 89.5zM686 1262q0 51 36 86.5t89 35.5 q51 0 87 -35.5t36 -86.5q0 -53 -36 -89t-87 -36q-53 0 -89 35.5t-36 89.5z" />
<glyph unicode="&#xe7;" horiz-adv-x="964" d="M61 487q0 109 41 204t112 166t165 112t203 41q92 0 174 -30t147 -83q-14 -41 -33.5 -80t-50.5 -78h-2q-68 66 -127 83.5t-108 15.5q-55 -2 -104.5 -30t-86.5 -75t-58.5 -109.5t-21.5 -136.5q0 -72 21.5 -135t58.5 -110t86 -75t105 -30q49 0 108.5 17.5t126.5 83.5l2 -2 q31 -39 50.5 -78t33.5 -80q-49 -37 -105.5 -63.5t-119.5 -37.5q-8 -86 -38 -152.5t-72 -118.5t-90 -90t-93 -62l-23 110q33 27 63 59.5t51.5 71.5t30.5 83t3 95q-96 12 -178 57.5t-141.5 114t-94.5 156.5t-35 186z" />
<glyph unicode="&#xe8;" horiz-adv-x="1042" d="M51 487q0 -109 41 -203t111.5 -164.5t166 -111.5t203.5 -41q104 0 196.5 39t162.5 107l-121 123q-33 -31 -70 -54q-33 -20 -75.5 -33.5t-92.5 -9.5q-57 0 -106 27t-86 73t-58.5 107.5t-21.5 132.5q0 76 19.5 140.5t54.5 110.5t83 71.5t107 25.5q76 0 118 -21.5t63.5 -50 t26.5 -56t5 -37.5q0 -12 -10 -46t-53 -65t-130 -43t-241 18v-24q0 -78 29 -152q117 -23 228.5 -15.5t198.5 41.5t142 96.5t59 152.5q4 76 -29.5 145.5t-92 122.5t-138.5 85t-168 32q-109 0 -204 -41t-165.5 -112t-111.5 -166t-41 -204zM184 1405q51 33 105.5 43t105.5 16 q37 -80 85 -125t102.5 -66.5t113 -24.5t113.5 5l74 -84q-63 -23 -145.5 -34t-173.5 8.5t-188.5 80t-191.5 181.5z" />
<glyph unicode="&#xe9;" horiz-adv-x="1042" d="M51 487q0 109 41 204t111.5 166t165.5 112t204 41q88 0 168 -32t138.5 -85t92.5 -123t29 -145q-4 -90 -59 -152.5t-142 -96.5t-199 -41t-228 15q-29 74 -29 152v24q154 -31 241 -18.5t130 43.5t53 64.5t10 46.5q0 10 -5 37.5t-26.5 56t-63.5 50t-118 21.5 q-59 0 -107 -25.5t-83 -71.5t-54.5 -110.5t-19.5 -140.5q0 -72 21.5 -133t58.5 -107t86 -73t106 -27q49 -4 92.5 9.5t75.5 33.5q37 23 70 54l121 -123q-70 -68 -162 -107t-197 -39q-109 0 -204 41t-165.5 111.5t-111.5 165t-41 202.5zM231 1198l80 80q55 -10 112.5 -11 t113 17.5t106.5 60t92 119.5q51 -10 105.5 -23t103.5 -48q-100 -115 -201.5 -169.5t-194.5 -68.5t-174 2.5t-143 40.5z" />
<glyph unicode="&#xea;" horiz-adv-x="1042" d="M51 487q0 109 41 204t111.5 166t165.5 112t204 41q88 0 168 -32t138.5 -85t92.5 -123t29 -145q-4 -90 -59 -152.5t-142 -96.5t-199 -41t-228 15q-29 74 -29 152v24q154 -31 241 -18.5t130 43.5t53 64.5t10 46.5q0 10 -5 37.5t-26.5 56t-63.5 50t-118 21.5 q-59 0 -107 -25.5t-83 -71.5t-54.5 -110.5t-19.5 -140.5q0 -72 21.5 -133t58.5 -107t86 -73t106 -27q49 -4 92.5 9.5t75.5 33.5q37 23 70 54l121 -123q-70 -68 -162 -107t-197 -39q-109 0 -204 41t-165.5 111.5t-111.5 165t-41 202.5zM219 1135v86q82 6 140.5 31.5 t98.5 60.5t62.5 74.5t30.5 76.5q8 -37 30.5 -76.5t62.5 -74.5t98.5 -60.5t140.5 -31.5v-86q-31 -8 -70 -11.5t-83 4t-90 28t-89 56.5q-43 -37 -90 -57t-91 -27.5t-83 -4.5t-68 12z" />
<glyph unicode="&#xeb;" horiz-adv-x="1042" d="M51 487q0 109 41 204t111.5 166t165.5 112t204 41q88 0 168 -32t138.5 -85t92.5 -123t29 -145q-4 -90 -59 -152.5t-142 -96.5t-199 -41t-228 15q-29 74 -29 152v24q154 -31 241 -18.5t130 43.5t53 64.5t10 46.5q0 10 -5 37.5t-26.5 56t-63.5 50t-118 21.5 q-59 0 -107 -25.5t-83 -71.5t-54.5 -110.5t-19.5 -140.5q0 -72 21.5 -133t58.5 -107t86 -73t106 -27q49 -4 92.5 9.5t75.5 33.5q37 23 70 54l121 -123q-70 -68 -162 -107t-197 -39q-109 0 -204 41t-165.5 111.5t-111.5 165t-41 202.5zM215 1262q0 51 37 86.5t88 35.5 q53 0 89 -35.5t36 -86.5q0 -53 -36 -89t-89 -36q-51 0 -88 35.5t-37 89.5zM645 1262q0 51 36 86.5t89 35.5q51 0 87 -35.5t36 -86.5q0 -53 -36 -89t-87 -36q-53 0 -89 35.5t-36 89.5z" />
<glyph unicode="&#xec;" horiz-adv-x="671" d="M-23 1405q51 33 105.5 43t105.5 16q37 -80 85.5 -125t102.5 -66.5t112.5 -24.5t113.5 5l74 -84q-63 -23 -145 -34t-173.5 8.5t-189 80t-191.5 181.5zM190 4h50q113 12 200 59v904q-76 0 -136.5 -17.5t-113.5 -46.5v-899z" />
<glyph unicode="&#xed;" horiz-adv-x="692" d="M-16 1198l79 80q55 -10 112.5 -11t113 17.5t106.5 60t92 119.5q51 -10 105.5 -23t103.5 -48q-100 -115 -201.5 -169.5t-194.5 -68.5t-174 2.5t-142 40.5zM190 4v899q53 29 114 46.5t136 17.5v-904q-88 -47 -200 -59h-50z" />
<glyph unicode="&#xee;" horiz-adv-x="663" d="M-6 1135v86q82 6 140.5 31.5t98 60.5t62.5 74.5t31 76.5q8 -37 30.5 -76.5t62.5 -74.5t98 -60.5t140 -31.5v-86q-31 -8 -69.5 -11.5t-82.5 4t-90 28t-89 56.5q-43 -37 -90.5 -57t-91.5 -27.5t-82.5 -4.5t-67.5 12zM190 4v899q53 29 114 46.5t136 17.5v-904 q-88 -47 -200 -59h-50z" />
<glyph unicode="&#xef;" horiz-adv-x="636" d="M-20 1262q0 51 36.5 86.5t87.5 35.5q53 0 89 -35.5t36 -86.5q0 -53 -36 -89t-89 -36q-51 0 -87.5 35.5t-36.5 89.5zM190 4v899q53 29 114 46.5t136 17.5v-904q-88 -47 -200 -59h-50zM410 1262q0 51 35.5 86.5t89.5 35.5q51 0 86.5 -35.5t35.5 -86.5q0 -53 -35.5 -89 t-86.5 -36q-53 0 -89 35.5t-36 89.5z" />
<glyph unicode="&#xf1;" d="M61 0v489q0 106 37 201.5t102.5 166.5t155.5 112t199 41t200 -41t156.5 -112t102.5 -166t37 -202v-426q-53 -29 -113.5 -46t-136.5 -17v489q0 72 -17.5 135.5t-49.5 111.5t-77 76t-102 28q-55 0 -101 -28t-78 -76t-49.5 -111.5t-17.5 -135.5v-426q-53 -29 -113.5 -46 t-134.5 -17zM186 1116l7 121q96 90 195 110.5t214 -20.5q57 -23 105.5 -39t92.5 -21t84 5t81 45l-7 -121q-80 -68 -164.5 -75t-199.5 36q-55 20 -108.5 33.5t-103.5 11.5t-99.5 -21.5t-96.5 -64.5z" />
<glyph unicode="&#xf2;" horiz-adv-x="1142" d="M51 489q0 -109 41 -202.5t111.5 -164.5t165 -112t202.5 -41q106 0 201.5 41t166.5 112t112 165t41 202q0 106 -41 201.5t-112 166.5t-166.5 112t-201.5 41q-109 0 -203 -41t-164.5 -112t-111.5 -166t-41 -202zM213 1405q51 33 105.5 43t105.5 16q37 -80 85 -125 t102.5 -66.5t112.5 -24.5t114 5l73 -84q-63 -23 -145 -34t-173 8.5t-188.5 80t-191.5 181.5zM299 489q0 72 21.5 135.5t58.5 111.5t86 76t106 28q55 0 105.5 -28t87.5 -76t58.5 -111.5t21.5 -135.5t-21.5 -136t-58.5 -111t-87.5 -75t-105.5 -28q-57 0 -106 28t-86 75 t-58.5 111.5t-21.5 135.5z" />
<glyph unicode="&#xf3;" horiz-adv-x="1142" d="M51 489q0 106 41 201.5t111.5 166.5t164.5 112t203 41q106 0 201.5 -41t166.5 -112t112 -166t41 -202q0 -109 -41 -202.5t-112 -164.5t-166 -112t-202 -41q-109 0 -203 41t-164.5 112t-111.5 165t-41 202zM231 1198l80 80q55 -10 112.5 -11t113 17.5t106.5 60t92 119.5 q51 -10 105.5 -23t103.5 -48q-100 -115 -201.5 -169.5t-194.5 -68.5t-174 2.5t-143 40.5zM299 489q0 -72 21.5 -136t58.5 -111t86 -75t106 -28q55 0 105.5 28t87.5 75t58.5 111.5t21.5 135.5q0 72 -21.5 135.5t-58.5 111.5t-87 76t-106 28q-57 0 -106 -28t-86 -76 t-58.5 -111.5t-21.5 -135.5z" />
<glyph unicode="&#xf4;" horiz-adv-x="1142" d="M51 489q0 106 41 201.5t111.5 166.5t164.5 112t203 41q106 0 201.5 -41t166.5 -112t112 -166t41 -202q0 -109 -41 -202.5t-112 -164.5t-166 -112t-202 -41q-109 0 -203 41t-164.5 112t-111.5 165t-41 202zM215 1135v86q82 6 140.5 31.5t98.5 60.5t62.5 74.5t30.5 76.5 q8 -37 30.5 -76.5t62.5 -74.5t98.5 -60.5t140.5 -31.5v-86q-31 -8 -70 -11.5t-83 4t-90 28t-89 56.5q-43 -37 -90 -57t-91 -27.5t-83 -4.5t-68 12zM299 489q0 -72 21.5 -136t58.5 -111t86 -75t106 -28q55 0 105.5 28t87.5 75t58.5 111.5t21.5 135.5q0 72 -21.5 135.5 t-58.5 111.5t-87 76t-106 28q-57 0 -106 -28t-86 -76t-58.5 -111.5t-21.5 -135.5z" />
<glyph unicode="&#xf5;" horiz-adv-x="1142" d="M51 489q0 106 41 201.5t111.5 166.5t164.5 112t203 41q106 0 201.5 -41t166.5 -112t112 -166t41 -202q0 -109 -41 -202.5t-112 -164.5t-166 -112t-202 -41q-109 0 -203 41t-164.5 112t-111.5 165t-41 202zM186 1116l7 121q96 90 195 110.5t214 -20.5q57 -23 105.5 -39 t92.5 -21t84 5t81 45l-7 -121q-80 -68 -164.5 -75t-199.5 36q-55 20 -108.5 33.5t-103.5 11.5t-99.5 -21.5t-96.5 -64.5zM299 489q0 -72 21.5 -136t58.5 -111t86 -75t106 -28q55 0 105.5 28t87.5 75t58.5 111.5t21.5 135.5q0 72 -21.5 135.5t-58.5 111.5t-87 76t-106 28 q-57 0 -106 -28t-86 -76t-58.5 -111.5t-21.5 -135.5z" />
<glyph unicode="&#xf6;" horiz-adv-x="1142" d="M51 489q0 106 41 201.5t111.5 166.5t164.5 112t203 41q106 0 201.5 -41t166.5 -112t112 -166t41 -202q0 -109 -41 -202.5t-112 -164.5t-166 -112t-202 -41q-109 0 -203 41t-164.5 112t-111.5 165t-41 202zM246 1262q0 51 36.5 86.5t88.5 35.5q53 0 89 -35.5t36 -86.5 q0 -53 -36 -89t-89 -36q-51 0 -88 35.5t-37 89.5zM299 489q0 -72 21.5 -136t58.5 -111t86 -75t106 -28q55 0 105.5 28t87.5 75t58.5 111.5t21.5 135.5q0 72 -21.5 135.5t-58.5 111.5t-87 76t-106 28q-57 0 -106 -28t-86 -76t-58.5 -111.5t-21.5 -135.5zM676 1262 q0 51 36 86.5t89 35.5q51 0 87 -35.5t36 -86.5q0 -53 -36 -89t-87 -36q-53 0 -89 35.5t-36 89.5z" />
<glyph unicode="&#xf9;" d="M61 492q0 -109 37 -203t102.5 -165t157 -112t199.5 -41q106 0 197.5 41t157 112t102.5 165t37 203v489q-74 0 -134.5 -17t-113.5 -46v-426q0 -72 -17.5 -136.5t-49 -111.5t-78 -75t-101.5 -28q-57 0 -102 28t-77 75t-49.5 111.5t-17.5 136.5v489q-76 0 -136 -17.5 t-114 -45.5v-426zM190 1405q51 33 105.5 43t105.5 16q37 -80 85.5 -125t102.5 -66.5t112.5 -24.5t113.5 5l74 -84q-63 -23 -145 -34t-173.5 8.5t-189 80t-191.5 181.5z" />
<glyph unicode="&#xfa;" d="M61 492v426q53 29 114 46t136 17v-489q0 -72 17.5 -136.5t49.5 -111.5t77 -75t102 -28q55 0 101.5 28t78 75t49 111.5t17.5 136.5v426q53 29 113.5 46t134.5 17v-489q0 -109 -37 -203t-102.5 -165t-156.5 -112t-198 -41q-109 0 -200 41t-156.5 112t-102.5 165t-37 203z M231 1198l80 80q55 -10 112.5 -11t113 17.5t106.5 60t92 119.5q51 -10 105.5 -23t103.5 -48q-100 -115 -201.5 -169.5t-194.5 -68.5t-174 2.5t-143 40.5z" />
<glyph unicode="&#xfb;" d="M61 492v426q53 29 114 46t136 17v-489q0 -72 17.5 -136.5t49.5 -111.5t77 -75t102 -28q55 0 101.5 28t78 75t49 111.5t17.5 136.5v426q53 29 113.5 46t134.5 17v-489q0 -109 -37 -203t-102.5 -165t-156.5 -112t-198 -41q-109 0 -200 41t-156.5 112t-102.5 165t-37 203z M215 1135v86q82 6 140.5 31.5t98.5 60.5t62.5 74.5t30.5 76.5q8 -37 30.5 -76.5t62.5 -74.5t98.5 -60.5t140.5 -31.5v-86q-31 -8 -70 -11.5t-83 4t-90 28t-89 56.5q-43 -37 -90 -57t-91 -27.5t-83 -4.5t-68 12z" />
<glyph unicode="&#xfc;" d="M51 1262q0 51 37 86.5t88 35.5q53 0 89 -35.5t36 -86.5q0 -53 -36 -89t-89 -36q-51 0 -88 35.5t-37 89.5zM481 1262q0 51 36 86.5t89 35.5q51 0 87 -35.5t36 -86.5q0 -53 -36 -89t-87 -36q-53 0 -89 35.5t-36 89.5z" />
<glyph unicode="&#xfd;" d="M61 492v426q53 29 114 46t136 17v-489q0 -72 17.5 -136.5t49.5 -111.5t77 -75t102 -28q66 0 109 38t82 102v-263q-51 -23 -92.5 -35t-98.5 -12q-109 0 -200 41t-156.5 112t-102.5 165t-37 203zM211 -451q27 84 82 158l2 2q68 -66 128 -83t107 -17q55 0 104.5 26.5 t86.5 73.5t59.5 109.5t22.5 134.5v965q53 29 112.5 46t135.5 17v-1022q0 -109 -41 -203t-112 -164.5t-166 -111.5t-202 -41q-92 0 -173 28.5t-146 81.5zM231 1198l80 80q55 -10 112.5 -11t113 17.5t106.5 60t92 119.5q51 -10 105.5 -23t103.5 -48q-100 -115 -201.5 -169.5 t-194.5 -68.5t-174 2.5t-143 40.5z" />
<glyph unicode="&#xff;" d="M61 492v426q53 29 114 46t136 17v-489q0 -72 17.5 -136.5t49.5 -111.5t77 -75t102 -28q66 0 109 38t82 102v-263q-51 -23 -92.5 -35t-98.5 -12q-109 0 -200 41t-156.5 112t-102.5 165t-37 203zM211 -451q27 84 82 158l2 2q68 -66 128 -83t107 -17q55 0 104.5 26.5 t86.5 73.5t59.5 109.5t22.5 134.5v965q53 29 112.5 46t135.5 17v-1022q0 -109 -41 -203t-112 -164.5t-166 -111.5t-202 -41q-92 0 -173 28.5t-146 81.5zM229 1262q0 51 37 86.5t88 35.5q53 0 89 -35.5t36 -86.5q0 -53 -36 -89t-89 -36q-51 0 -88 35.5t-37 89.5zM659 1262 q0 51 36 86.5t89 35.5q51 0 87 -35.5t36 -86.5q0 -53 -36 -89t-87 -36q-53 0 -89 35.5t-36 89.5z" />
<glyph unicode="&#x153;" horiz-adv-x="1826" d="M41 487q0 106 41 201.5t111.5 166.5t165 112t202.5 41q121 0 223.5 -48.5t173.5 -134.5q72 86 174.5 134.5t221.5 48.5q88 0 168 -32t139 -84t93 -122t30 -145q-4 -90 -59.5 -152.5t-143.5 -97.5t-198.5 -41t-227.5 16q-29 70 -29 152v24q152 -31 239 -18.5t130 43.5 t53.5 64.5t10.5 46.5q0 10 -5.5 36.5t-26 55t-62.5 51t-117 22.5q-59 0 -107.5 -25.5t-84.5 -71.5t-55.5 -110.5t-19.5 -140.5q0 -72 21.5 -133t58.5 -108.5t87 -74t106 -26.5q49 -4 93 11.5t77 33.5q37 23 69 51l121 -120q-72 -68 -164 -107t-196 -39q-119 0 -221.5 49.5 t-174.5 133.5q-72 -84 -174 -133.5t-223 -49.5q-109 0 -203 41t-164.5 111.5t-111.5 165t-41 202.5zM289 487q0 -72 21.5 -136t58.5 -111t87 -75t105 -28t105.5 28t87.5 75t58.5 111.5t21.5 135.5q0 72 -21.5 135.5t-58.5 111.5t-87.5 76t-105.5 28t-105 -28t-87 -76 t-58.5 -111.5t-21.5 -135.5z" />
<glyph unicode="&#x2000;" horiz-adv-x="786" />
<glyph unicode="&#x2001;" horiz-adv-x="1573" />
<glyph unicode="&#x2002;" horiz-adv-x="786" />
<glyph unicode="&#x2003;" horiz-adv-x="1573" />
<glyph unicode="&#x2004;" horiz-adv-x="524" />
<glyph unicode="&#x2005;" horiz-adv-x="393" />
<glyph unicode="&#x2006;" horiz-adv-x="262" />
<glyph unicode="&#x2007;" horiz-adv-x="262" />
<glyph unicode="&#x2008;" horiz-adv-x="196" />
<glyph unicode="&#x2009;" horiz-adv-x="314" />
<glyph unicode="&#x200a;" horiz-adv-x="87" />
<glyph unicode="&#x2010;" horiz-adv-x="714" d="M61 455v190h592v-190h-592z" />
<glyph unicode="&#x2011;" horiz-adv-x="714" d="M61 455v190h592v-190h-592z" />
<glyph unicode="&#x2012;" horiz-adv-x="714" d="M61 455v190h592v-190h-592z" />
<glyph unicode="&#x2013;" horiz-adv-x="1146" d="M61 455v190h1024v-190h-1024z" />
<glyph unicode="&#x2014;" horiz-adv-x="2170" d="M61 455v190h2048v-190h-2048z" />
<glyph unicode="&#x2026;" horiz-adv-x="1351" d="M61 164q0 68 48.5 115t115.5 47q68 0 116 -47.5t48 -114.5q0 -70 -48 -117t-116 -47t-116 47t-48 117zM512 164q0 68 48 115t116 47t116 -47.5t48 -114.5q0 -70 -48 -117t-116 -47t-116 47t-48 117zM963 164q0 68 48 115t115 47q68 0 116 -47.5t48 -114.5q0 -70 -48 -117 t-116 -47t-115.5 47t-47.5 117z" />
<glyph unicode="&#x202f;" horiz-adv-x="314" />
<glyph unicode="&#x205f;" horiz-adv-x="393" />
<glyph unicode="&#x25fc;" horiz-adv-x="972" d="M0 0v973h973v-973h-973z" />
</font>
</defs>
</svg>
